<mxfile host="app.diagrams.net" agent="Mozilla/5.0 (Windows NT 10.0; Win64; x64) AppleWebKit/537.36 (KHTML, like Gecko) Chrome/135.0.0.0 Safari/537.36" version="26.2.14">
  <diagram name="ページ1" id="IU9VbG6GmeM65qIimHAQ">
    <mxGraphModel dx="1103" dy="914" grid="0" gridSize="10" guides="1" tooltips="1" connect="1" arrows="1" fold="1" page="0" pageScale="1" pageWidth="827" pageHeight="1169" math="0" shadow="0">
      <root>
        <mxCell id="0" />
        <mxCell id="1" parent="0" />
        <mxCell id="txniJEIcmpw9B4n3GOOt-14" value="" style="rounded=0;whiteSpace=wrap;html=1;" vertex="1" parent="1">
          <mxGeometry x="-195" y="241" width="636" height="344" as="geometry" />
        </mxCell>
        <mxCell id="-yGYM-xdBJS-DeD2w3J_-1" value="利用者&lt;div&gt;&lt;br&gt;&lt;/div&gt;" style="shape=umlActor;verticalLabelPosition=bottom;verticalAlign=top;html=1;" parent="1" vertex="1">
          <mxGeometry x="-113" y="372" width="66" height="119" as="geometry" />
        </mxCell>
        <mxCell id="txniJEIcmpw9B4n3GOOt-3" value="趣向性アンケートを入力" style="ellipse;html=1;whiteSpace=wrap;" vertex="1" parent="1">
          <mxGeometry x="46" y="298" width="277" height="90" as="geometry" />
        </mxCell>
        <mxCell id="txniJEIcmpw9B4n3GOOt-4" value="趣向性にあったアニメを表示する" style="ellipse;html=1;whiteSpace=wrap;" vertex="1" parent="1">
          <mxGeometry x="49" y="402.5" width="276" height="90" as="geometry" />
        </mxCell>
        <mxCell id="txniJEIcmpw9B4n3GOOt-9" value="" style="endArrow=none;html=1;rounded=0;fontSize=12;startSize=8;endSize=8;curved=1;exitX=0;exitY=0.5;exitDx=0;exitDy=0;" edge="1" parent="1" source="txniJEIcmpw9B4n3GOOt-3" target="-yGYM-xdBJS-DeD2w3J_-1">
          <mxGeometry width="50" height="50" relative="1" as="geometry">
            <mxPoint x="51" y="398" as="sourcePoint" />
            <mxPoint x="-91" y="379" as="targetPoint" />
          </mxGeometry>
        </mxCell>
        <mxCell id="txniJEIcmpw9B4n3GOOt-10" value="" style="endArrow=none;html=1;rounded=0;fontSize=12;startSize=8;endSize=8;curved=1;entryX=0;entryY=0.5;entryDx=0;entryDy=0;" edge="1" parent="1" source="-yGYM-xdBJS-DeD2w3J_-1" target="txniJEIcmpw9B4n3GOOt-4">
          <mxGeometry width="50" height="50" relative="1" as="geometry">
            <mxPoint x="114" y="521" as="sourcePoint" />
            <mxPoint x="164" y="471" as="targetPoint" />
          </mxGeometry>
        </mxCell>
        <mxCell id="txniJEIcmpw9B4n3GOOt-15" value="ユースケース図" style="text;html=1;align=center;verticalAlign=middle;whiteSpace=wrap;rounded=0;" vertex="1" parent="1">
          <mxGeometry x="36" y="551" width="174" height="30" as="geometry" />
        </mxCell>
        <mxCell id="txniJEIcmpw9B4n3GOOt-17" value="" style="rounded=0;whiteSpace=wrap;html=1;" vertex="1" parent="1">
          <mxGeometry x="-195" y="599" width="636" height="344" as="geometry" />
        </mxCell>
      </root>
    </mxGraphModel>
  </diagram>
</mxfile>
